<svg xmlns="http://www.w3.org/2000/svg" version="1.1" width="1200" height="1200" viewBox="90 90 420 420">
  <path d="M0 0 C0.66 0 1.32 0 2 0 C2.00410889 0.93980713 2.00821777 1.87961426 2.01245117 2.84790039 C2.30900875 41.71592284 11.31203484 73.2182237 29 108 C29.4345752 108.85819336 29.86915039 109.71638672 30.31689453 110.60058594 C34.93664643 119.67400252 39.85511676 128.55356251 44.9375 137.375 C58.0587064 160.1996889 69.98573235 183.50141228 77 209 C77.29390625 210.05058594 77.5878125 211.10117187 77.890625 212.18359375 C81.54094757 225.94387834 82.41055596 239.34362623 82.375 253.5 C82.3737915 254.38839569 82.37258301 255.27679138 82.37133789 256.19210815 C82.32224109 269.48431947 81.87282979 282.18987069 78 295 C77.72091797 295.93005859 77.44183594 296.86011719 77.15429688 297.81835938 C73.24546542 310.47434232 68.38206502 322.40095283 62 334 C61.43667969 335.051875 60.87335938 336.10375 60.29296875 337.1875 C53.75486596 348.94689799 45.22355884 359.25165247 36 369 C35.23171875 369.82113281 34.4634375 370.64226562 33.671875 371.48828125 C29.13133233 376.1972634 24.37402524 380.50658967 19.25 384.5625 C18.71922852 384.99240234 18.18845703 385.42230469 17.64160156 385.86523438 C14.15137922 388.54666691 11.3764282 389.62656226 7 390 C8.04081021 388.20783567 9.08270601 386.4163018 10.125 384.625 C10.76824219 383.51382812 11.41148437 382.40265625 12.07421875 381.2578125 C13.18632432 379.37648178 14.32221954 377.50797324 15.51953125 375.6796875 C24.0063587 362.63382051 28.89787847 347.15141463 32 332 C32.22429687 331.01 32.44859375 330.02 32.6796875 329 C36.08503627 311.4601214 34.84276406 292.36685126 31 275 C30.83902832 274.26797363 30.67805664 273.53594727 30.51220703 272.78173828 C24.02170341 244.49411588 7.70995989 207.08801064 -16 189 C-40.80906859 213.93728083 -56.67160521 248.6527851 -63.54174805 282.78051758 C-63.85402561 284.29299246 -64.18985466 285.80075043 -64.54614258 287.3034668 C-66.12826631 294.2815988 -66.34765725 301.0480677 -66.3125 308.1875 C-66.30686035 309.3849585 -66.3012207 310.58241699 -66.29541016 311.81616211 C-66.17504922 320.59714789 -65.48629496 328.53721489 -63 337 C-62.80132324 337.69319336 -62.60264648 338.38638672 -62.39794922 339.10058594 C-57.59227191 355.58027935 -49.9039029 369.86411689 -40.94873047 384.43896484 C-40.45131348 385.24930176 -39.95389648 386.05963867 -39.44140625 386.89453125 C-38.77153687 387.97504761 -38.77153687 387.97504761 -38.08813477 389.07739258 C-37 391 -37 391 -36 394 C-41.22149167 393.67027911 -43.92314836 390.65755795 -47.41015625 387.12109375 C-48.01830673 386.51677017 -48.62645721 385.91244659 -49.2530365 385.28981018 C-50.54300132 384.0025673 -51.82792854 382.71025932 -53.1081543 381.41333008 C-55.01799779 379.48249143 -56.94764515 377.57341726 -58.88085938 375.66601562 C-71.96284583 362.61478528 -82.5915068 348.46216284 -91 332 C-91.31807617 331.37770508 -91.63615234 330.75541016 -91.96386719 330.11425781 C-105.27573751 303.67134718 -110.22600856 276.04981374 -110.3125 246.625 C-110.31511841 245.77017029 -110.31773682 244.91534058 -110.32043457 244.03460693 C-110.3256437 228.05633485 -108.95738418 212.72958709 -106 197 C-105.85046875 196.19095215 -105.7009375 195.3819043 -105.546875 194.54833984 C-104.59991677 189.62612989 -103.37313504 184.81911754 -102 180 C-101.60603027 178.59282715 -101.60603027 178.59282715 -101.20410156 177.15722656 C-96.60303904 160.92386453 -90.92344487 145.38257965 -84 130 C-83.56816406 129.0399707 -83.13632813 128.07994141 -82.69140625 127.09082031 C-69.61602968 98.33081177 -53.33240962 70.72113745 -35 45 C-34.49645996 44.28537598 -33.99291992 43.57075195 -33.47412109 42.83447266 C-26.18791053 32.49571863 -18.5632178 22.53173882 -10.48388672 12.80126953 C-9.05562409 11.06752131 -7.65071032 9.31774013 -6.25390625 7.55859375 C-5.44824219 6.54925781 -4.64257812 5.53992188 -3.8125 4.5 C-3.11769531 3.6234375 -2.42289062 2.746875 -1.70703125 1.84375 C-1.14371094 1.2353125 -0.58039063 0.626875 0 0 Z " fill="#F98E21" transform="translate(314,97)"/>
  <path d="M0 0 C26.63228779 20.26369723 42.29245657 60.40941065 49 92 C49.2475 93.15371094 49.495 94.30742187 49.75 95.49609375 C56.12033693 131.63890811 46.3755877 168.20862677 26.0546875 198.25390625 C25.37664062 199.16011719 24.69859375 200.06632813 24 201 C23.68329346 201.61633301 23.36658691 202.23266602 23.0402832 202.86767578 C21.55214198 205.28586694 20.43494382 206.49510538 18 208 C12.92544203 208.87818531 8.00653857 208.92364382 2.8684082 208.80273438 C0.43957492 208.75004501 -1.98289781 208.76159022 -4.41210938 208.78125 C-5.96357537 208.76943693 -7.5150186 208.75393678 -9.06640625 208.734375 C-9.78735977 208.73822205 -10.50831329 208.74206909 -11.25111389 208.74603271 C-15.05709046 208.62186758 -16.82723794 208.13955931 -19.81884766 205.72290039 C-21.65812228 203.42679228 -23.32152482 201.21844497 -24.83203125 198.69921875 C-25.31647705 197.89556885 -25.80092285 197.09191895 -26.30004883 196.26391602 C-26.79915771 195.41369873 -27.2982666 194.56348145 -27.8125 193.6875 C-28.33803467 192.79667725 -28.86356934 191.90585449 -29.4050293 190.98803711 C-35.99400214 179.70922442 -41.66218677 168.64147027 -45.875 156.25 C-46.16157471 155.41090088 -46.44814941 154.57180176 -46.7434082 153.70727539 C-53.81961061 131.86538309 -52.55491327 108.02651866 -47 86 C-46.82339844 85.27200195 -46.64679688 84.54400391 -46.46484375 83.79394531 C-38.83278521 52.96890889 -22.12854252 22.75751918 0 0 Z " fill="#0156A6" transform="translate(298,285)"/>
  <path d="M0 0 C2.67195116 1.07349567 3.51216854 2.31248228 5.14160156 4.67358398 C5.70395508 5.48005371 6.26630859 6.28652344 6.84570312 7.11743164 C7.43706055 7.99318848 8.02841797 8.86894531 8.63769531 9.77124023 C9.25612305 10.67277832 9.87455078 11.57431641 10.51171875 12.50317383 C16.35175258 21.09172435 21.84752162 29.86089726 27.07519531 38.83374023 C27.49220703 39.54675293 27.90921875 40.25976562 28.33886719 40.99438477 C38.01959577 57.66381405 46.83319074 74.92916097 52.87988281 93.26342773 C53.85485118 96.17558817 54.92498768 98.95432094 56.13769531 101.77124023 C60.32782361 111.97481624 62.81528167 123.06053467 65.07519531 133.83374023 C65.21940918 134.515896 65.36362305 135.19805176 65.51220703 135.90087891 C67.80411955 147.29970176 68.37388787 158.61435759 68.38769531 170.20874023 C68.39109924 170.87970734 68.39450317 171.55067444 68.39801025 172.24197388 C68.45392223 191.49187954 65.31672909 210.3450744 57.07519531 227.83374023 C56.78628418 228.45249023 56.49737305 229.07124023 56.19970703 229.70874023 C51.84976054 238.95491608 46.95043973 247.4518761 41.07519531 255.83374023 C39.60985464 257.97479454 38.15142261 260.12059472 36.70019531 262.27124023 C36.05308594 263.21870117 35.40597656 264.16616211 34.73925781 265.14233398 C33.01158055 267.75936087 33.01158055 267.75936087 31.99707031 270.56420898 C30.71954324 273.70930741 29.14571544 274.51780304 26.07519531 275.83374023 C23.91113281 275.40405273 23.91113281 275.40405273 22.07519531 274.83374023 C22.63207031 274.00874023 23.18894531 273.18374023 23.76269531 272.33374023 C45.09414428 240.27064177 54.45262135 203.59965908 47.04003906 165.29858398 C46.72572279 163.8087443 46.40415211 162.32041587 46.07519531 160.83374023 C45.91422363 160.10171387 45.75325195 159.3696875 45.58740234 158.61547852 C39.09689872 130.32785611 22.7851552 92.92175087 -0.92480469 74.83374023 C-25.73387328 99.77102107 -41.5964099 134.48652533 -48.46655273 168.61425781 C-48.7788303 170.1267327 -49.11465935 171.63449067 -49.47094727 173.13720703 C-51.053071 180.11533904 -51.27246193 186.88180793 -51.23730469 194.02124023 C-51.23166504 195.21869873 -51.22602539 196.41615723 -51.22021484 197.64990234 C-51.09985391 206.43088812 -50.41109965 214.37095513 -47.92480469 222.83374023 C-47.72612793 223.52693359 -47.52745117 224.22012695 -47.32275391 224.93432617 C-43.85362091 236.83072383 -39.15570306 248.13819243 -32.7578125 258.77368164 C-31.76169538 260.43031418 -30.83687386 262.12938977 -29.92480469 263.83374023 C-30.25480469 264.49374023 -30.58480469 265.15374023 -30.92480469 265.83374023 C-58.17702715 237.29299662 -69.39955204 199.87043148 -69.18554688 160.9050293 C-69.17474624 158.57111038 -69.18556326 156.23794984 -69.19824219 153.90405273 C-69.2062351 145.32363783 -68.58848788 137.27626479 -66.92480469 128.83374023 C-66.68801143 127.24687671 -66.46210109 125.65833685 -66.24902344 124.06811523 C-64.88246205 114.29029897 -62.81964631 105.16866798 -59.59863281 95.84057617 C-58.91704049 93.81061642 -58.29800834 91.76978283 -57.69042969 89.71655273 C-51.63538435 69.70698493 -42.02129377 50.85037432 -29.92480469 33.83374023 C-29.48942383 33.21563477 -29.05404297 32.5975293 -28.60546875 31.96069336 C-23.53563526 24.81180852 -23.53563526 24.81180852 -20.92480469 21.83374023 C-20.26480469 21.83374023 -19.60480469 21.83374023 -18.92480469 21.83374023 C-18.81305908 21.24206055 -18.70131348 20.65038086 -18.58618164 20.04077148 C-17.86173386 17.62327131 -16.99300698 16.40947469 -15.34277344 14.52124023 C-14.82263672 13.92053711 -14.3025 13.31983398 -13.76660156 12.70092773 C-13.22068359 12.08475586 -12.67476563 11.46858398 -12.11230469 10.83374023 C-11.31083008 9.90948242 -11.31083008 9.90948242 -10.49316406 8.96655273 C-9.45380684 7.77506327 -8.40574179 6.59110064 -7.34814453 5.41577148 C-6.14058798 4.0735817 -4.96111638 2.7062073 -3.78808594 1.33374023 C-1.92480469 -0.16625977 -1.92480469 -0.16625977 0 0 Z " fill="#FCE806" transform="translate(298.9248,211.1663)"/>
</svg>
